<?xml version="1.0" encoding="UTF-8" standalone="no"?>
<!-- Created with Inkscape (http://www.inkscape.org/) -->

<svg
   xmlns:dc="http://purl.org/dc/elements/1.1/"
   xmlns:cc="http://creativecommons.org/ns#"
   xmlns:rdf="http://www.w3.org/1999/02/22-rdf-syntax-ns#"
   xmlns:svg="http://www.w3.org/2000/svg"
   xmlns="http://www.w3.org/2000/svg"
   xmlns:sodipodi="http://sodipodi.sourceforge.net/DTD/sodipodi-0.dtd"
   xmlns:inkscape="http://www.inkscape.org/namespaces/inkscape"
   width="297mm"
   height="210mm"
   viewBox="0 0 1052.3622 744.09448"
   id="svg3436"
   version="1.1"
   inkscape:version="0.91 r13725"
   sodipodi:docname="tumor-class-switch.svg">
  <defs
     id="defs3438">
    <inkscape:path-effect
       effect="spiro"
       id="path-effect3938"
       is_visible="true" />
    <inkscape:path-effect
       effect="skeletal"
       id="path-effect4302"
       is_visible="true"
       pattern="m 236.19711,563.95175 1,0"
       copytype="single_stretched"
       prop_scale="1"
       scale_y_rel="false"
       spacing="0"
       normal_offset="0"
       tang_offset="0"
       prop_units="false"
       vertical_pattern="false"
       fuse_tolerance="0" />
    <inkscape:path-effect
       effect="spiro"
       id="path-effect4429"
       is_visible="true" />
    <inkscape:path-effect
       is_visible="true"
       id="path-effect4445"
       effect="spiro" />
    <inkscape:path-effect
       effect="skeletal"
       id="path-effect4515"
       is_visible="true"
       pattern="m 51.193211,380.16306 1,0"
       copytype="single_stretched"
       prop_scale="1"
       scale_y_rel="false"
       spacing="0"
       normal_offset="0"
       tang_offset="0"
       prop_units="false"
       vertical_pattern="false"
       fuse_tolerance="0" />
    <inkscape:path-effect
       fuse_tolerance="0"
       vertical_pattern="false"
       prop_units="false"
       tang_offset="0"
       normal_offset="0"
       spacing="0"
       scale_y_rel="false"
       prop_scale="1"
       copytype="single_stretched"
       pattern="m -116.22048,491.10236 1,0"
       is_visible="true"
       id="path-effect4346"
       effect="skeletal" />
    <inkscape:path-effect
       is_visible="true"
       id="path-effect4295"
       effect="spiro" />
    <inkscape:path-effect
       effect="spiro"
       id="path-effect4309"
       is_visible="true" />
    <inkscape:path-effect
       effect="spiro"
       id="path-effect4309-3"
       is_visible="true" />
    <inkscape:path-effect
       is_visible="true"
       id="path-effect4337"
       effect="spiro" />
    <inkscape:path-effect
       effect="skeletal"
       id="path-effect4196"
       is_visible="true"
       pattern="m -81.386423,208.8543 1,0"
       copytype="single_stretched"
       prop_scale="1"
       scale_y_rel="false"
       spacing="0"
       normal_offset="0"
       tang_offset="0"
       prop_units="false"
       vertical_pattern="false"
       fuse_tolerance="0" />
    <inkscape:path-effect
       fuse_tolerance="0"
       vertical_pattern="false"
       prop_units="false"
       tang_offset="0"
       normal_offset="0"
       spacing="0"
       scale_y_rel="false"
       prop_scale="1"
       copytype="single_stretched"
       pattern="m -78.890353,416.39761 1,0"
       is_visible="true"
       id="path-effect4208"
       effect="skeletal" />
    <inkscape:path-effect
       effect="skeletal"
       id="path-effect4212"
       is_visible="true"
       pattern="m -78.890353,624.39761 1,0"
       copytype="single_stretched"
       prop_scale="1"
       scale_y_rel="false"
       spacing="0"
       normal_offset="0"
       tang_offset="0"
       prop_units="false"
       vertical_pattern="false"
       fuse_tolerance="0" />
  </defs>
  <sodipodi:namedview
     id="base"
     pagecolor="#ffffff"
     bordercolor="#666666"
     borderopacity="1.0"
     inkscape:pageopacity="0.0"
     inkscape:pageshadow="2"
     inkscape:zoom="0.6652381"
     inkscape:cx="425.35225"
     inkscape:cy="372.04724"
     inkscape:document-units="px"
     inkscape:current-layer="layer1"
     showgrid="false"
     inkscape:window-width="1280"
     inkscape:window-height="662"
     inkscape:window-x="-8"
     inkscape:window-y="-8"
     inkscape:window-maximized="1" />
  <metadata
     id="metadata3441">
    <rdf:RDF>
      <cc:Work
         rdf:about="">
        <dc:format>image/svg+xml</dc:format>
        <dc:type
           rdf:resource="http://purl.org/dc/dcmitype/StillImage" />
        <dc:title></dc:title>
      </cc:Work>
    </rdf:RDF>
  </metadata>
  <g
     inkscape:label="Layer 1"
     inkscape:groupmode="layer"
     id="layer1"
     transform="translate(0,-308.26772)">
    <circle
       style="opacity:0.77999998;fill:#00ffff;fill-opacity:0.91124262;fill-rule:evenodd;stroke:#00ffff;stroke-width:2.43057299;stroke-linecap:butt;stroke-linejoin:bevel;stroke-miterlimit:4;stroke-dasharray:none;stroke-dashoffset:0;stroke-opacity:1"
       id="path4190"
       cx="743.05829"
       cy="377.64465"
       r="7.4179878" />
    <circle
       r="7.4179878"
       cy="443.96777"
       cx="743.05829"
       id="circle4192"
       style="opacity:0.77999998;fill:#ff0000;fill-opacity:0.91124262;fill-rule:evenodd;stroke:#ff0000;stroke-width:2.43057299;stroke-linecap:butt;stroke-linejoin:bevel;stroke-miterlimit:4;stroke-dasharray:none;stroke-dashoffset:0;stroke-opacity:1" />
    <text
       xml:space="preserve"
       style="font-style:normal;font-variant:normal;font-weight:normal;font-stretch:normal;font-size:25px;line-height:125%;font-family:Calibri;-inkscape-font-specification:'Calibri, Normal';text-align:center;letter-spacing:0.06px;word-spacing:0px;writing-mode:lr-tb;text-anchor:middle;fill:#0000ff;fill-opacity:1;stroke:none;stroke-width:1px;stroke-linecap:butt;stroke-linejoin:miter;stroke-opacity:1"
       x="849.34344"
       y="365.58746"
       id="text4207"
       sodipodi:linespacing="125%"><tspan
         sodipodi:role="line"
         id="tspan4209"
         x="852.23547"
         y="365.58746">Tumor protein A </tspan><tspan
         sodipodi:role="line"
         x="849.37347"
         y="396.83746"
         id="tspan4215">{Th1 inducer}</tspan></text>
    <text
       sodipodi:linespacing="125%"
       id="text4211"
       y="449.58746"
       x="849.34344"
       style="font-style:normal;font-variant:normal;font-weight:normal;font-stretch:normal;font-size:25px;line-height:125%;font-family:Calibri;-inkscape-font-specification:'Calibri, Normal';text-align:center;letter-spacing:0.06px;word-spacing:0px;writing-mode:lr-tb;text-anchor:middle;fill:#0000ff;fill-opacity:1;stroke:none;stroke-width:1px;stroke-linecap:butt;stroke-linejoin:miter;stroke-opacity:1"
       xml:space="preserve"><tspan
         y="449.58746"
         x="852.23547"
         id="tspan4213"
         sodipodi:role="line">Tumor protein B </tspan><tspan
         y="480.83746"
         x="849.37347"
         sodipodi:role="line"
         id="tspan4217">{non-Th1 inducer}</tspan></text>
    <circle
       r="7.4179878"
       cy="755.99255"
       cx="749.18713"
       id="circle4277"
       style="opacity:0.77999998;fill:#00ffff;fill-opacity:0.91124262;fill-rule:evenodd;stroke:#00ffff;stroke-width:2.43057299;stroke-linecap:butt;stroke-linejoin:bevel;stroke-miterlimit:4;stroke-dasharray:none;stroke-dashoffset:0;stroke-opacity:1" />
    <path
       style="fill:#ffff00;fill-rule:evenodd;stroke:#800000;stroke-width:2.91499996;stroke-linecap:butt;stroke-linejoin:miter;stroke-miterlimit:4;stroke-dasharray:none;stroke-opacity:1"
       d="m 709.61669,747.14343 c 2.41095,-2.36555 5.57974,-3.8058 8.79241,-4.8485 3.29799,-1.07038 6.70602,-1.76886 10.01852,-2.79344 0,0 0,0 0,0 4.42838,-1.36972 8.88687,-3.07103 13.52036,-2.9392 0,0 0,0 0,0 1.91418,0.0545 3.8393,0.12502 5.71374,0.51679 1.8015,0.37653 3.59507,1.09262 4.86741,2.42241 1.89019,1.97554 2.64727,5.05455 1.76353,7.64194 -0.9378,2.74565 -3.62486,4.70361 -6.46626,5.29058 0,0 0,0 0,0 -1.46594,0.30283 -2.87499,-0.615 -4.17176,-1.36271 -0.65925,-0.38011 -1.32501,-0.7636 -2.05027,-0.99399 -0.65158,-0.20699 -1.37457,-0.25249 -2.00776,0.005 -1.51729,0.6178 -1.93088,2.53154 -2.35136,4.1149 -0.56479,2.12679 -0.95323,4.48292 0,6.46625 0,0 0,0 0,0 0.56028,1.16574 1.68248,2.0456 2.93921,2.35137 0.96585,0.235 1.97925,-0.0206 2.92161,-0.33685 0.97363,-0.32678 1.93481,-0.73764 2.95681,-0.83884 0.9239,-0.0915 1.82826,-0.32917 2.75128,-0.42921 0,0 0,0 10e-6,0 0.87138,-0.0944 1.80755,-0.0533 2.53928,0.42921 0,0 0,0 0,10e-6 0.76667,0.50554 1.07329,1.4742 1.34464,2.35155 0,0 0,0 0,1e-5 0.12427,0.40181 0.228,0.80988 0.31543,1.22129 0,0 0,10e-6 0,10e-6 0.0275,0.12933 0.0533,0.25902 0.077,0.3891 0.007,0.0367 0.0132,0.0733 0.0194,0.11005 0.002,0.014 0.005,0.0286 0.007,0.0426 l -0.0193,2.65583 c -0.0535,0.7214 -0.14666,1.44243 -0.33374,2.1412 0,0 0,0 0,0 -0.16207,0.60537 -0.38811,1.21783 -0.82256,1.66947 -1.26274,1.31274 -3.0776,1.95967 -4.87768,2.23806 -1.88288,0.29121 -3.80203,0.2341 -5.70347,0.11331 -5.22479,-0.33192 -9.81533,-3.39655 -14.69604,-5.29057 -2.37841,-0.92297 -4.864,-1.6307 -7.05409,-2.93921 0,0 -10e-6,0 -10e-6,0 -3.49707,-2.08938 -7.12722,-4.26487 -9.40546,-7.64194 -1.51585,-2.24695 -2.49549,-4.93532 -2.35137,-7.64194 0.0811,-1.5231 0.6748,-3.04667 1.76352,-4.1149 z"
       id="path4300"
       inkscape:path-effect="#path-effect4302"
       inkscape:original-d="m 709.61669,747.14343 c 4.83096,-4.73998 12.34517,-5.64204 18.81093,-7.64194 4.4061,-1.36283 8.91018,-3.07037 13.52036,-2.9392 3.65912,0.1041 8.05048,0.29427 10.58115,2.9392 1.80731,1.88892 2.60852,5.16801 1.76353,7.64194 -0.90016,2.63545 -3.73891,4.72717 -6.46626,5.29058 -2.79404,0.57719 -5.58739,-3.42728 -8.22979,-2.35137 -1.46314,0.59575 -1.94588,2.58804 -2.35136,4.1149 -0.55322,2.08321 -0.9337,4.52357 0,6.46625 0.54351,1.13085 1.7201,2.05475 2.93921,2.35137 1.94163,0.47242 3.88986,-0.97878 5.87842,-1.17569 1.75494,-0.17377 3.8183,-0.9708 5.29057,0 1.24582,0.8215 1.76352,4.1149 1.76352,4.1149 0,0 0.34307,4.88739 -1.17568,6.46625 -2.50477,2.60394 -6.97533,2.58044 -10.58115,2.35137 -5.19597,-0.33009 -9.84226,-3.407 -14.69604,-5.29057 -2.37477,-0.92156 -4.86736,-1.63271 -7.0541,-2.93921 -3.46776,-2.07187 -7.14631,-4.29317 -9.40546,-7.64194 -1.49052,-2.20941 -2.49308,-4.98054 -2.35137,-7.64194 0.0793,-1.49018 0.69833,-3.06976 1.76352,-4.1149 z"
       inkscape:connector-curvature="0"
       sodipodi:nodetypes="aaaaaaaaaaaacsaaaasa" />
    <text
       xml:space="preserve"
       style="font-style:normal;font-variant:normal;font-weight:normal;font-stretch:normal;font-size:20px;line-height:125%;font-family:Calibri;-inkscape-font-specification:'Calibri, Normal';text-align:center;letter-spacing:0.06px;word-spacing:0px;writing-mode:lr-tb;text-anchor:middle;fill:#0000ff;fill-opacity:1;stroke:none;stroke-width:1px;stroke-linecap:butt;stroke-linejoin:miter;stroke-opacity:1"
       x="745.01593"
       y="725.52661"
       id="text4410"
       sodipodi:linespacing="125%"><tspan
         sodipodi:role="line"
         id="tspan4412"
         x="745.04596"
         y="725.52661">MHC-II</tspan></text>
    <ellipse
       style="opacity:0.77999998;fill:#ffd5d5;fill-opacity:1;fill-rule:evenodd;stroke:#008080;stroke-width:2.91499996;stroke-linecap:butt;stroke-linejoin:miter;stroke-miterlimit:4;stroke-dasharray:none;stroke-dashoffset:0;stroke-opacity:1"
       id="path4425"
       cx="441.46393"
       cy="491.09268"
       rx="60.236221"
       ry="55.984253" />
    <path
       style="fill:#ff0000;fill-opacity:0.91124262;fill-rule:evenodd;stroke:#ff0000;stroke-width:5;stroke-linecap:butt;stroke-linejoin:miter;stroke-miterlimit:4;stroke-dasharray:none;stroke-opacity:1"
       d="M 512.84558,544.56718 490.16842,521.89001"
       id="path4427"
       inkscape:path-effect="#path-effect4429"
       inkscape:original-d="m 512.84558,544.56718 c -9.67735,-8.15123 -15.79663,-15.79663 -22.67716,-22.67717"
       inkscape:connector-curvature="0" />
    <path
       inkscape:connector-curvature="0"
       inkscape:original-d="m 501.34952,555.27584 c -9.67735,-8.15123 -15.79663,-15.79663 -22.67716,-22.67717"
       inkscape:path-effect="#path-effect4445"
       id="path4443"
       d="M 501.34952,555.27584 478.67236,532.59867"
       style="fill:#ff0000;fill-opacity:1;fill-rule:evenodd;stroke:#ff0000;stroke-width:5;stroke-linecap:butt;stroke-linejoin:miter;stroke-miterlimit:4;stroke-dasharray:none;stroke-opacity:1" />
    <path
       style="fill:#f4d7d7;fill-opacity:1;fill-rule:evenodd;stroke:#008080;stroke-width:1px;stroke-linecap:butt;stroke-linejoin:miter;stroke-opacity:1"
       d="m 597.07965,589.68482 c 7.27532,-5.41608 15.6554,-9.34561 24.4652,-11.50237 8.66848,-2.12216 17.93173,-2.48437 26.44648,0.18866 7.8467,2.4633 14.66567,7.60815 20.10714,13.77491 0,10e-6 10e-6,2e-5 10e-6,3e-5 5.52772,6.26452 9.79613,13.64842 12.41977,21.5804 0.61878,1.87073 1.57727,3.60651 2.53468,5.32868 0.82499,1.48398 1.6121,3.02885 1.86759,4.7074 0.32958,2.16524 -0.22076,4.37594 -1.04065,6.40686 -1.5165,3.75645 -3.82303,7.13958 -6.19005,10.42711 -9.42809,6.59966 -18.85619,13.19933 -28.28428,19.79899 -2e-5,10e-6 -4e-5,2e-5 -6e-5,4e-5 -6.12824,3.77122 -12.25647,7.54245 -18.38471,11.31367 -1.5e-4,0.001 -0.001,0.0123 -0.001,0.0136 0,0 -10e-6,3e-5 -10e-6,3e-5 -1.7e-4,0.002 -0.004,0.0355 -0.004,0.0371 0,0 -10e-6,3e-5 -10e-6,3e-5 -0.005,0.0476 -0.01,0.0951 -0.0144,0.14273 0,0 0,4e-5 0,4e-5 -0.0178,0.18045 -0.0343,0.36104 -0.05,0.54169 -0.057,0.65557 -0.1035,1.31203 -0.14223,1.96893 -0.12499,2.11986 -0.17025,4.24489 -0.11498,6.36771 0.0654,2.51105 0.26022,5.02605 0.75564,7.48862 0.4325,2.14986 1.05991,4.33086 2.39979,6.06686 10e-6,10e-6 2e-5,2e-5 2e-5,3e-5 3.40823,4.41581 8.4132,7.37279 13.67351,9.22874 1e-5,0 2e-5,10e-6 3e-5,10e-6 5.68386,2.00539 11.67343,2.97153 17.62277,3.93759 2e-5,10e-6 4e-5,10e-6 6e-5,2e-5 6.01576,0.97684 12.07264,1.88357 17.88445,3.71836 l 0,0 c 5.40729,1.70709 10.64774,4.37245 14.45879,8.57112 l 0,0 2e-5,3e-5 c 4.2765,4.71146 7.70398,10.23244 9.79617,16.24152 0,2e-5 0,3e-5 0,4e-5 1.98942,5.71386 2.6718,12.22151 0.1033,17.69954 -2.59486,5.53426 -8.02734,9.27775 -13.72959,11.47905 l 0,0 c -5.95265,2.29796 -12.44173,3.22982 -18.79732,2.66308 -3.32351,-0.29637 -6.55657,-1.33515 -9.53829,-2.83277 -3.07137,-1.54265 -5.89497,-3.54037 -8.56785,-5.70111 -5.4962,-4.44311 -10.36939,-9.61282 -15.83498,-14.09353 -2.05061,-1.6811 -3.55448,-3.92764 -4.96328,-6.17405 -1.55015,-2.47182 -2.94472,-5.03892 -4.50863,-7.50206 -10e-6,-10e-6 -10e-6,-2e-5 -2e-5,-3e-5 -1.31835,-2.0764 -2.7189,-4.1871 -4.72243,-5.61376 -0.78692,-0.56034 -1.69056,-0.98297 -2.65023,-1.09365 0,0 -4e-5,0 -4e-5,0 -1.01159,-0.11666 -2.04247,0.13136 -2.95436,0.58456 -10e-6,1e-5 -2e-5,1e-5 -3e-5,2e-5 -1.38812,0.68987 -2.68551,1.58769 -3.72649,2.73625 -0.92279,1.01814 -1.62658,2.23142 -2.06404,3.53402 -0.97199,2.89427 -0.70311,6.06633 -0.0589,9.05071 0.82141,3.80517 2.26417,7.44859 3.83619,11.00988 1.81777,4.11801 3.85836,8.13335 5.89469,12.14778 0,10e-6 10e-6,2e-5 10e-6,3e-5 4.02297,7.93089 8.30382,15.8381 10.6186,24.42444 0,10e-6 0,2e-5 10e-6,3e-5 0.93313,3.46133 1.52239,7.08034 1.05074,10.63408 l 0,0 -10e-6,4e-5 0,0 c -0.4245,3.19844 -1.90119,6.26137 -4.23707,8.48711 l 0,0 c -4.23701,4.03723 -9.90362,6.35155 -15.68042,7.28964 -6.38975,1.03763 -12.96662,0.56087 -19.29062,-0.8221 l 0,0 c -6.57799,-1.43852 -12.94179,-3.87552 -18.77566,-7.23786 l 0,0 -3e-5,-2e-5 -3e-5,-2e-5 c -5.3818,-3.10179 -10.37947,-7.01013 -14.1355,-11.95757 0,-10e-6 -10e-6,-2e-5 -10e-6,-3e-5 -1.58198,-2.08378 -2.46087,-4.6514 -2.71063,-7.2557 0,-10e-6 0,-2e-5 0,-3e-5 -0.26601,-2.77374 0.0845,-5.57462 0.65355,-8.30236 l 0,0 c 1.20239,-5.76401 3.43773,-11.26148 4.88552,-16.96879 l 0,0 c 1.49509,-5.89378 5.14578,-10.96166 8.34695,-16.13123 1.57889,-2.54976 3.0962,-5.1543 4.20324,-7.94153 1.06653,-2.68524 1.713,-5.56739 1.59195,-8.45415 -0.0848,-2.02157 -0.82229,-3.96069 -1.66663,-5.79945 l -2e-5,-3e-5 c 0,-10e-6 -10e-6,-2e-5 -10e-6,-3e-5 l 0,0 c -0.95763,-2.08547 -2.12828,-4.06756 -3.38427,-5.98817 0,-10e-6 -10e-6,-2e-5 -2e-5,-3e-5 -1.05007,-1.60573 -2.16626,-3.16791 -3.33365,-4.69049 l 0,0 -4e-5,-5e-5 c -0.35958,-0.46899 -0.72412,-0.93421 -1.09525,-1.39411 -0.10209,-0.1265 -0.20467,-0.2526 -0.30807,-0.37802 -0.0273,-0.0331 -0.0546,-0.0661 -0.082,-0.0991 l 0,0 c 0.001,0.002 -0.0228,-0.0273 -0.0215,-0.0258 0.002,0.002 -0.01,-0.0118 -0.008,-0.009 l -39.59802,32.52687 c 0.53311,3.81738 1.06621,7.63474 1.59932,11.45211 0.998,8.67484 1.5985,17.40124 1.6005,26.13329 0.002,9.6051 -0.59922,19.30224 -3.18137,28.55374 -2e-5,2e-5 -2e-5,4e-5 -2e-5,6e-5 -1.11159,3.98266 -2.61868,7.89048 -4.87862,11.35313 -1.98579,3.04261 -4.62791,5.716 -7.86774,7.36049 -5.12138,2.59953 -11.10321,3.14914 -16.80026,2.42133 -2e-5,-2e-5 -4e-5,-10e-6 -6e-5,-10e-6 -6.32605,-0.80819 -12.41462,-3.07087 -18.00258,-6.14442 -5.74981,-3.16257 -11.02276,-7.21765 -15.45037,-12.06105 -4.04826,-4.42841 -7.44753,-9.57335 -9.1437,-15.32855 -1.94611,-6.60326 -1.5684,-13.7686 0.49605,-20.33582 2.2199,-7.06174 6.08808,-13.5042 10.4493,-19.48549 2e-5,-2e-5 3e-5,-4e-5 5e-5,-5e-5 4.72533,-6.48065 10.0932,-12.4661 15.58318,-18.31312 5.28067,-5.62409 10.72103,-11.099 15.89783,-16.81884 1.9432,-2.14704 4.21489,-3.97154 6.52702,-5.71505 2.57161,-1.93917 5.23969,-3.74776 7.94913,-5.48917 2e-5,-10e-6 4e-5,-2e-5 6e-5,-3e-5 2.21224,-1.42185 4.45459,-2.79671 6.72147,-4.12971 0.68819,-0.40468 1.37867,-0.80547 2.07227,-1.20079 0.18942,-0.10795 0.37907,-0.21551 0.5691,-0.32237 0.0499,-0.028 0.0997,-0.056 0.14968,-0.0839 -0.002,0.001 0.0412,-0.023 0.0389,-0.0217 -0.004,0.002 0.0177,-0.01 0.014,-0.008 -0.009,-0.002 -0.009,-0.002 -0.009,-0.002 -0.001,-2.1e-4 -0.0237,-0.005 -0.0249,-0.005 -0.0324,-0.006 -0.0647,-0.0125 -0.0971,-0.0188 0,0 -6e-5,-2e-5 -6e-5,-2e-5 -0.12599,-0.0245 -0.2519,-0.0493 -0.37779,-0.0743 0,0 -6e-5,-10e-6 -6e-5,-10e-6 -0.48157,-0.0957 -0.96261,-0.19396 -1.44332,-0.29384 -1.75925,-0.3655 -3.51408,-0.75216 -5.26538,-1.15407 -5.7336,-1.31583 -11.4306,-2.79349 -17.0722,-4.46018 -6.829,-2.01747 -13.59022,-4.29631 -20.13015,-7.11317 -5.82235,-2.50778 -11.5996,-5.35585 -16.39133,-9.50653 -2e-5,-2e-5 -3e-5,-3e-5 -5e-5,-5e-5 -9.39343,-8.13676 -17.86809,-17.44631 -24.30547,-28.07662 -6.22514,-10.27984 -10.50106,-22.16213 -9.6356,-34.14873 1e-5,-2e-5 2e-5,-4e-5 2e-5,-6e-5 0.73931,-10.23945 4.62761,-20.16288 10.49352,-28.58807 2.90764,-4.17622 6.37896,-7.99333 10.47572,-11.0119 3.83442,-2.82527 8.26613,-4.91926 12.97186,-5.6548 4.17434,-0.65248 8.50298,0.29909 12.24018,2.26992 2e-5,10e-6 4e-5,3e-5 6e-5,4e-5 4.05241,2.13706 7.52609,5.22146 10.77519,8.45139 3.52836,3.50754 6.80493,7.25825 10.22768,10.86893 2e-5,10e-6 3e-5,3e-5 5e-5,4e-5 3.27326,3.45299 6.67205,6.8338 10.59746,9.52238 6.94908,4.75954 12.4682,11.29005 18.7771,16.87044 3.01148,2.66373 6.21021,5.16848 9.81308,6.95281 2e-5,1e-5 4e-5,2e-5 6e-5,4e-5 3.40318,1.68543 7.22039,2.61913 11.00776,2.33965 2e-5,-10e-6 4e-5,-2e-5 6e-5,-3e-5 5.2729,-0.38909 10.26583,-2.70097 14.5009,-5.86626 4.59051,-3.43096 8.45383,-7.73734 12.07027,-12.1832 3.71039,-4.56135 7.14919,-9.33699 10.80547,-13.94182 3.21166,-4.04486 6.56366,-8.05803 10.70656,-11.14219 z"
       id="path4513"
       inkscape:path-effect="#path-effect4515"
       inkscape:original-d="m 597.07965,589.68482 c 13.94472,-10.38108 34.32525,-16.52067 50.91168,-11.31371 15.27871,4.79642 27.49801,20.15157 32.52692,35.35534 2.82824,8.55056 9.85396,9.25563 -2.82843,26.87005 l -28.28428,19.79899 -18.38477,11.31371 c 0,0 -1.81588,16.6101 2.82843,22.62742 13.9597,18.08665 48.28391,8.53832 63.63961,25.45584 7.92078,8.7264 14.90257,23.2707 9.89949,33.94113 -5.01906,10.70452 -20.75087,15.19223 -32.52691,14.14213 -13.54364,-1.20773 -23.42569,-14.00682 -33.94112,-22.62741 -7.21786,-5.91723 -11.44095,-23.95281 -19.79899,-19.79899 -24.71622,12.28357 31.2955,62.9848 11.31371,82.02439 -16.66703,15.88113 -53.96165,5.60828 -67.88226,-12.72793 -6.58079,-8.6682 0.15241,-21.97782 2.82843,-32.52691 2.90704,-11.45979 14.63745,-20.71452 14.14214,-32.52691 -0.2916,-6.9541 -9.8995,-18.38478 -9.8995,-18.38478 l -39.59798,32.52691 c 0,0 12.77549,71.90769 -12.72793,84.85282 -19.93028,10.1163 -53.07847,-9.67367 -59.39697,-31.1127 -8.11603,-27.5382 23.1615,-53.66752 42.42641,-74.95332 6.58237,-7.27287 24.04163,-16.97056 24.04163,-16.97056 0,0 -44.46339,-8.46665 -60.81119,-22.62742 -17.85842,-15.46929 -35.64259,-38.66002 -33.94112,-62.2254 1.35792,-18.80722 15.31115,-42.34284 33.94112,-45.25483 17.7046,-2.76734 29.05633,20.9867 43.84062,31.1127 13.05221,8.93967 23.82072,27.32718 39.598,26.16294 21.47324,-1.58455 33.35562,-32.16958 48.08326,-43.1335 z"
       inkscape:connector-curvature="0"
       sodipodi:nodetypes="aaasccaaaaaaaaaaccaaacaaaaaa" />
    <text
       xml:space="preserve"
       style="font-style:normal;font-variant:normal;font-weight:normal;font-stretch:normal;font-size:37.5px;line-height:125%;font-family:Calibri;-inkscape-font-specification:'Calibri, Normal';text-align:center;letter-spacing:0.06px;word-spacing:0px;writing-mode:lr-tb;text-anchor:middle;fill:#0000ff;fill-opacity:1;stroke:none;stroke-width:1px;stroke-linecap:butt;stroke-linejoin:miter;stroke-opacity:1"
       x="564.04437"
       y="687.72766"
       id="text4522"
       sodipodi:linespacing="125%"><tspan
         sodipodi:role="line"
         id="tspan4524"
         x="564.0744"
         y="687.72766">DCs</tspan></text>
    <text
       xml:space="preserve"
       style="font-style:normal;font-variant:normal;font-weight:normal;font-stretch:normal;font-size:37.5px;line-height:125%;font-family:Calibri;-inkscape-font-specification:'Calibri, Normal';text-align:center;letter-spacing:0.06px;word-spacing:0px;writing-mode:lr-tb;text-anchor:middle;fill:#0000ff;fill-opacity:1;stroke:none;stroke-width:1px;stroke-linecap:butt;stroke-linejoin:miter;stroke-opacity:1"
       x="443.34851"
       y="496.90906"
       id="text4447"
       sodipodi:linespacing="125%"><tspan
         sodipodi:role="line"
         id="tspan4449"
         x="443.37851"
         y="496.90906">Foxp3<tspan
   style="font-size:64.99999762%;baseline-shift:super;fill:#0000ff"
   id="tspan4451">+</tspan></tspan></text>
    <g
       id="g4526"
       transform="matrix(0.72504687,-0.68869952,0.68869952,0.72504687,-221.97598,353.92987)">
      <circle
         r="5.9113579"
         cy="684.56689"
         cx="400.39371"
         id="circle4342"
         style="opacity:0.77999998;fill:#ff0000;fill-opacity:1;fill-rule:evenodd;stroke:#ff0000;stroke-width:0.91003513;stroke-linecap:butt;stroke-linejoin:miter;stroke-miterlimit:4;stroke-dasharray:none;stroke-dashoffset:0;stroke-opacity:1" />
      <path
         style="fill:#ffff00;fill-rule:evenodd;stroke:#800000;stroke-width:2.91499996;stroke-linecap:butt;stroke-linejoin:miter;stroke-miterlimit:4;stroke-dasharray:none;stroke-opacity:1"
         d="m 357.19909,674.29404 c 2.41095,-2.36555 5.57974,-3.8058 8.79241,-4.8485 3.29799,-1.07038 6.70602,-1.76886 10.01852,-2.79344 4.42837,-1.36972 8.88687,-3.07103 13.52036,-2.9392 0,0 1e-5,0 1e-5,0 1.91417,0.0545 3.83929,0.12502 5.71373,0.51679 1.8015,0.37653 3.59507,1.09262 4.86741,2.42241 1.89019,1.97554 2.64727,5.05455 1.76353,7.64194 -0.9378,2.74565 -3.62486,4.70361 -6.46626,5.29058 0,0 0,0 0,0 -1.46594,0.30283 -2.87499,-0.615 -4.17176,-1.36271 -0.65925,-0.38011 -1.32501,-0.7636 -2.05027,-0.99399 -0.65158,-0.20699 -1.37457,-0.25249 -2.00776,0.005 -1.51728,0.6178 -1.93087,2.53154 -2.35136,4.11489 0,1e-5 0,1e-5 0,1e-5 -0.56479,2.12679 -0.95323,4.48292 0,6.46625 0,0 0,0 0,0 0.56028,1.16574 1.68248,2.0456 2.93921,2.35137 0.96585,0.235 1.97925,-0.0206 2.92161,-0.33685 0.97363,-0.32678 1.93481,-0.73764 2.95681,-0.83884 0.9239,-0.0915 1.82826,-0.32917 2.75128,-0.42921 0,0 0,0 10e-6,0 0.87138,-0.0945 1.80755,-0.0533 2.53928,0.42921 0.76667,0.50555 1.07329,1.47421 1.34464,2.35156 0,0 0,0 0,10e-6 0.12427,0.40181 0.228,0.80988 0.31543,1.22129 0,0 0,10e-6 0,10e-6 0.0275,0.12933 0.0533,0.25902 0.077,0.3891 0,0 0,10e-6 0,10e-6 0.007,0.0366 0.0132,0.0733 0.0194,0.11004 0,0 0,0 0,0 l 0,0 c 0.002,0.014 0.005,0.0286 0.007,0.0426 0,0 0,10e-6 0,10e-6 0.001,0.0203 0.003,0.0413 0.004,0.0612 0.003,0.054 0.006,0.108 0.008,0.16203 0.009,0.1933 0.0146,0.38674 0.0179,0.58022 0.0104,0.6178 -0.004,1.23618 -0.0495,1.85237 -0.0535,0.7214 -0.14666,1.44243 -0.33374,2.1412 0,0 0,0 0,0 -0.16207,0.60537 -0.38811,1.21783 -0.82256,1.66947 -1.26274,1.31274 -3.0776,1.95967 -4.87768,2.23806 -1.88288,0.29121 -3.80203,0.2341 -5.70347,0.11331 -5.22479,-0.33192 -9.81533,-3.39655 -14.69604,-5.29057 -2.37841,-0.92297 -4.864,-1.6307 -7.0541,-2.93921 -3.49706,-2.08938 -7.12721,-4.26487 -9.40546,-7.64193 0,-10e-6 0,-10e-6 0,-10e-6 -1.51585,-2.24695 -2.49549,-4.93532 -2.35137,-7.64194 0.0811,-1.5231 0.6748,-3.04667 1.76352,-4.1149 z"
         id="path4344"
         inkscape:path-effect="#path-effect4346"
         inkscape:original-d="m 357.19909,674.29404 c 4.83096,-4.73998 12.34517,-5.64204 18.81093,-7.64194 4.4061,-1.36283 8.91018,-3.07037 13.52036,-2.9392 3.65912,0.1041 8.05048,0.29427 10.58115,2.9392 1.80731,1.88892 2.60852,5.16801 1.76353,7.64194 -0.90016,2.63545 -3.73891,4.72717 -6.46626,5.29058 -2.79404,0.57719 -5.58739,-3.42728 -8.22979,-2.35137 -1.46314,0.59575 -1.94588,2.58804 -2.35136,4.1149 -0.55322,2.08321 -0.9337,4.52357 0,6.46625 0.54351,1.13085 1.7201,2.05475 2.93921,2.35137 1.94163,0.47242 3.88986,-0.97878 5.87842,-1.17569 1.75494,-0.17377 3.8183,-0.9708 5.29057,0 1.24582,0.8215 1.76352,4.1149 1.76352,4.1149 0,0 0.34307,4.88739 -1.17568,6.46625 -2.50477,2.60394 -6.97533,2.58044 -10.58115,2.35137 -5.19597,-0.33009 -9.84226,-3.407 -14.69604,-5.29057 -2.37477,-0.92156 -4.86736,-1.63271 -7.0541,-2.93921 -3.46776,-2.07187 -7.14631,-4.29317 -9.40546,-7.64194 -1.49052,-2.20941 -2.49308,-4.98054 -2.35137,-7.64194 0.0793,-1.49018 0.69833,-3.06976 1.76352,-4.1149 z"
         inkscape:connector-curvature="0"
         sodipodi:nodetypes="aaaaaaaaaaaacsaaaasa" />
    </g>
    <ellipse
       ry="55.984253"
       rx="60.236221"
       cy="818.67896"
       cx="855.63"
       id="ellipse4291"
       style="opacity:0.77999998;fill:#ffd5d5;fill-opacity:1;fill-rule:evenodd;stroke:#008080;stroke-width:2.91499996;stroke-linecap:butt;stroke-linejoin:miter;stroke-miterlimit:4;stroke-dasharray:none;stroke-dashoffset:0;stroke-opacity:1" />
    <path
       inkscape:connector-curvature="0"
       inkscape:original-d="m 798.8771,799.45869 c -11.50803,-5.25916 -19.4526,-10.98467 -27.92556,-15.76927"
       inkscape:path-effect="#path-effect4295"
       id="path4293"
       d="M 798.8771,799.45869 770.95154,783.68942"
       style="fill:#00bdff;fill-opacity:0.91124262;fill-rule:evenodd;stroke:#00ffff;stroke-width:5;stroke-linecap:butt;stroke-linejoin:miter;stroke-miterlimit:4;stroke-dasharray:none;stroke-opacity:1" />
    <path
       style="fill:#00bdff;fill-opacity:0.91124262;fill-rule:evenodd;stroke:#00ffff;stroke-width:5;stroke-linecap:butt;stroke-linejoin:miter;stroke-miterlimit:4;stroke-dasharray:none;stroke-opacity:1"
       d="M 804.95006,784.52153 777.0245,768.75225"
       id="path4307"
       inkscape:path-effect="#path-effect4309"
       inkscape:original-d="M 804.95006,784.52153 C 793.44203,779.26237 785.49747,773.53685 777.0245,768.75225"
       inkscape:connector-curvature="0" />
    <ellipse
       style="opacity:0.77999998;fill:#ffd5d5;fill-opacity:1;fill-rule:evenodd;stroke:#008080;stroke-width:2.91499996;stroke-linecap:butt;stroke-linejoin:miter;stroke-miterlimit:4;stroke-dasharray:none;stroke-dashoffset:0;stroke-opacity:1"
       id="ellipse4311"
       cx="578.31439"
       cy="477.80127"
       rx="60.236221"
       ry="55.984253" />
    <text
       xml:space="preserve"
       style="font-style:normal;font-variant:normal;font-weight:normal;font-stretch:normal;font-size:30px;line-height:125%;font-family:Calibri;-inkscape-font-specification:'Calibri, Normal';text-align:center;letter-spacing:0.06px;word-spacing:0px;writing-mode:lr-tb;text-anchor:middle;fill:#0000ff;fill-opacity:1;stroke:none;stroke-width:1px;stroke-linecap:butt;stroke-linejoin:miter;stroke-opacity:1"
       x="856.29486"
       y="812.84888"
       id="text4313"
       sodipodi:linespacing="125%"><tspan
         sodipodi:role="line"
         id="tspan4315"
         x="856.32489"
         y="812.84888">Th1</tspan></text>
    <path
       inkscape:connector-curvature="0"
       inkscape:original-d="m 553.37087,560.35317 c 5.25917,-11.50801 10.98469,-19.45257 15.76929,-27.92555"
       inkscape:path-effect="#path-effect4337"
       id="path4335"
       d="m 553.37087,560.35317 15.76929,-27.92555"
       style="fill:#ff0000;fill-opacity:0.91124262;fill-rule:evenodd;stroke:#ff0000;stroke-width:5;stroke-linecap:butt;stroke-linejoin:miter;stroke-miterlimit:4;stroke-dasharray:none;stroke-opacity:1" />
    <path
       style="fill:#ffb380;fill-rule:evenodd;stroke:none;stroke-width:1px;stroke-linecap:butt;stroke-linejoin:miter;stroke-opacity:1"
       d="m 28.248393,390.05469 0.02101,-0.002 c 0.0038,-4.2e-4 0.07906,-0.009 0.08288,-0.009 0.108969,-0.0119 0.217948,-0.0238 0.326932,-0.0356 0.426671,-0.0462 0.853418,-0.0916 1.280205,-0.13674 1.639223,-0.17319 3.279042,-0.3407 4.919194,-0.50485 0,0 6.1e-5,-1e-5 6.1e-5,-1e-5 2.1e-5,0 4.1e-5,0 6.2e-5,-10e-6 6.029937,-0.60349 12.064404,-1.16131 18.101667,-1.68648 2.1e-5,0 4.1e-5,0 6.1e-5,0 19.932365,-1.73388 39.89597,-3.11509 59.8798,-4.09074 1e-5,0 2e-5,0 3e-5,0 24.50867,-1.19656 49.05602,-1.81853 73.58749,-1.25849 11.76071,0.26849 23.51871,0.81267 35.23632,1.85382 1e-5,0 2e-5,0 3e-5,0 10.27234,0.91273 20.52619,2.18171 30.62596,4.26705 1e-5,0 2e-5,0 3e-5,1e-5 5.07927,1.04874 10.26725,1.65427 15.21369,3.21362 10e-6,10e-6 2e-5,10e-6 3e-5,2e-5 2.34396,0.73893 4.64429,1.69332 6.65458,3.10714 1.888,1.32782 3.47663,3.11667 4.39844,5.23278 l 0,0 c 1.68715,3.87302 1.06598,8.41165 -0.4824,12.34221 -1.61779,4.10679 -4.20415,7.84961 -7.54482,10.73455 -1.40774,1.2157 -3.15405,1.99009 -4.95317,2.46218 -2.04141,0.53567 -4.16142,0.71681 -6.27164,0.7524 -4.70347,0.0793 -9.38613,-0.55058 -14.06549,-1.03277 -1e-5,0 -2e-5,0 -3e-5,0 -4.00772,-0.41299 -8.1075,-0.97435 -12.03966,-0.0966 -1.38933,0.31013 -2.77486,0.8757 -3.73941,1.92262 -1.00265,1.08829 -1.3972,2.62078 -1.40803,4.10049 0,10e-6 1e-5,2e-5 1e-5,3e-5 -0.0115,1.56615 0.41096,3.19866 1.50326,4.32109 1e-5,0 1e-5,10e-6 2e-5,2e-5 1.07496,1.1046 2.60338,1.65222 4.11669,1.94473 4.33817,0.83853 8.81506,0.17533 13.20871,-0.29231 5.00945,-0.53319 10.03572,-1.19769 15.06765,-0.95561 2.1838,0.10506 4.37832,0.38886 6.44033,1.1156 1e-5,10e-6 2e-5,10e-6 3e-5,10e-6 1.81778,0.64066 3.52544,1.67732 4.75643,3.16037 3.78556,4.56072 5.48263,10.60711 5.66485,16.53142 0.17931,5.82993 -1.17343,11.98221 -5.07206,16.32052 -1.34379,1.49534 -3.19422,2.47689 -5.13901,2.98641 -2.21219,0.57959 -4.53115,0.63949 -6.81399,0.50406 -10e-6,0 -2e-5,0 -3e-5,0 -5.35951,-0.31795 -10.59848,-1.66209 -15.82904,-2.87312 -4.62977,-1.07193 -9.31273,-2.38084 -14.05695,-2.10504 -1.63173,0.0949 -3.32258,0.44312 -4.59891,1.46416 -1.28231,1.02584 -1.89694,2.69446 -2.03784,4.33056 0,10e-6 1e-5,2e-5 1e-5,3e-5 -0.15769,1.83091 0.1964,3.7877 1.4079,5.16948 1.20234,1.37133 2.99068,2.08659 4.76487,2.50899 5.15389,1.22705 10.54976,0.69208 15.83991,0.40484 5.99348,-0.32541 12.02039,-0.79699 17.98573,-0.13192 l 0,0 c 2.55117,0.28442 5.10435,0.78887 7.44713,1.83801 2.05954,0.92231 3.93368,2.33783 5.16309,4.23016 2.55164,3.92754 2.96647,8.9462 2.20153,13.56695 -0.7708,4.65616 -2.76835,9.27077 -6.3344,12.36226 -1.19357,1.03473 -2.72415,1.62667 -4.28412,1.87524 -1.78532,0.28447 -3.61292,0.18012 -5.40378,-0.0671 -1e-5,-10e-6 -2e-5,-10e-6 -3e-5,-10e-6 -4.15155,-0.57314 -8.15866,-1.89076 -12.1696,-3.1058 -3.48963,-1.05711 -7.01076,-2.30595 -10.657,-2.30875 -1.23226,-9.5e-4 -2.52493,0.19294 -3.51307,0.92918 -1e-5,10e-6 -1e-5,2e-5 -1e-5,3e-5 -1.00651,0.74993 -1.49507,2.02286 -1.63706,3.26997 0,0 -1e-5,6e-5 -1e-5,6e-5 -0.15295,1.34343 0.0378,2.79385 0.88804,3.8452 0.82302,1.01774 2.09659,1.56718 3.36529,1.88898 3.7317,0.94653 7.66205,0.54368 11.50531,0.3182 1e-5,0 2e-5,0 3e-5,0 4.47813,-0.26272 8.9721,-0.64313 13.44319,-0.27984 0,0 6e-5,0 6e-5,0 1.96567,0.15972 3.93409,0.46776 5.78762,1.14141 1.61971,0.58867 3.15337,1.49396 4.27938,2.79861 2.99929,3.47514 4.66012,7.98831 5.1869,12.54845 0.5151,4.45906 -0.10182,9.24733 -2.74535,12.87504 -1.05174,1.4433 -2.58897,2.4859 -4.25216,3.13635 0,0 -6e-5,2e-5 -6e-5,2e-5 -1.89013,0.73919 -3.92446,1.04469 -5.94966,1.17729 0,0 -6e-5,10e-6 -6e-5,10e-6 -4.72502,0.30936 -9.45788,-0.27364 -14.1701,-0.73906 -2e-5,0 -4e-5,0 -6e-5,0 -4.15823,-0.4107 -8.39189,-1.01711 -12.49452,-0.22464 -1.4175,0.27381 -2.85451,0.77983 -3.85534,1.82031 -1.0094,1.0494 -1.36953,2.58137 -1.32008,4.03659 0.0487,1.43255 0.48001,2.88116 1.40206,3.97861 0,0 4e-5,4e-5 4e-5,4e-5 0.90016,1.07136 2.17746,1.76868 3.50352,2.2155 0,0 6e-5,2e-5 6e-5,2e-5 3.54671,1.19505 7.39893,1.03668 11.135,0.81514 2e-5,-10e-6 4e-5,-10e-6 6e-5,-10e-6 4.34852,-0.25786 8.67189,-0.82926 13.01071,-1.21759 2e-5,0 4e-5,0 6e-5,0 3.51025,-0.31417 7.10426,-0.72071 10.5326,0.096 0,0 6e-5,10e-6 6e-5,10e-6 1.06122,0.25282 2.07308,0.75134 2.86423,1.50245 0,0 5e-5,4e-5 5e-5,4e-5 0.74832,0.71046 1.28673,1.62382 1.63422,2.59541 0.80904,2.26213 0.72141,4.75372 0.3523,7.12765 -0.40079,2.57772 -1.17797,5.09342 -2.24549,7.47368 -0.83715,1.8666 -1.79686,3.74264 -3.29479,5.13593 0,0 -4e-5,4e-5 -4e-5,4e-5 -46.32731,-1.04347 -92.65773,-1.94064 -138.98853,-2.81523 -2e-5,0 -4e-5,0 -6e-5,0 -36.266873,-0.68462 -72.528967,-1.60354 -108.786623,-2.66981 0.45326,-65.5699 0.90652,-131.13981 1.35978,-196.70971"
       id="path4194"
       inkscape:path-effect="#path-effect4196"
       inkscape:original-d="m 28.241107,390.0555 c 0,0 150.920363,-16.70757 224.068993,-1.60424 9.36757,1.93417 22.44676,2.78433 26.26677,11.55357 3.25259,7.46666 -1.86324,17.75365 -8.02722,23.07676 -10.90975,9.42147 -42.3719,-6.30608 -42.47743,8.10832 -0.11242,15.34657 35.29122,-2.51506 45.09313,9.29393 6.99516,8.42754 7.9135,24.7056 0.59279,32.85194 -10.8431,12.06599 -47.08384,-11.8554 -48.47577,4.30703 -1.5572,18.08127 42.7215,-1.19888 52.60864,14.01959 4.76817,7.33927 2.48021,20.19618 -4.13287,25.92921 -9.48757,8.22498 -36.24427,-11.88305 -37.66468,0.59281 -1.52536,13.39751 30.45876,-0.49534 39.26892,9.71256 5.5625,6.44501 7.45538,18.54303 2.44155,25.42349 -8.44885,11.59432 -42.52923,-5.13097 -42.04204,9.20687 0.45301,13.33216 29.12759,3.39675 39.58411,5.8877 9.45045,2.25128 3.715,19.73849 -0.68946,23.83521 C 130.79816,589.01 130.47041,589.81156 26.881327,586.76521 Z"
       inkscape:connector-curvature="0"
       sodipodi:nodetypes="caaaaaaaaaaaaasccc" />
    <path
       sodipodi:nodetypes="caasasaaaaaaaasccc"
       inkscape:connector-curvature="0"
       inkscape:original-d="m 30.737167,597.59881 c 0,0 150.442533,10.96461 224.068993,-1.60424 24.79451,-4.2327 57.47322,-45.49386 71.36341,-24.52374 14.63518,22.09487 22.56883,76.19206 -53.12386,59.15407 -14.06293,-3.16548 -42.3719,-6.30608 -42.47743,8.10832 -0.11242,15.34657 30.95155,15.25594 45.09313,9.29393 68.84923,-29.02646 38.4365,29.64441 29.15399,44.87771 -13.42919,22.03831 -72.41287,-33.10866 -77.03697,-7.71874 -3.25173,17.85452 42.7215,-1.19888 52.60864,14.01959 4.76817,7.33927 2.48021,20.19618 -4.13287,25.92921 -9.48757,8.22498 -36.45524,-11.90526 -37.66468,0.59281 -2.67011,27.5922 63.58609,-4.04523 81.35911,17.22867 6.72134,8.04528 8.43389,24.10701 0.93833,31.43637 -19.71986,19.28262 -79.87669,-31.7651 -82.62901,-4.32212 -1.33121,13.27327 29.12759,3.39675 39.58411,5.8877 9.45045,2.25128 3.715,19.73849 -0.68946,23.83521 -143.85838,-3.24025 -144.18613,-2.43869 -247.775213,-5.48504 z"
       inkscape:path-effect="#path-effect4208"
       id="path4206"
       d="m 30.744433,597.59934 0.02095,0.002 c 0.0038,2.7e-4 0.07882,0.006 0.08263,0.006 0.108638,0.008 0.21728,0.0156 0.325925,0.0233 0.425408,0.0302 0.850854,0.0598 1.276321,0.0892 1.634717,0.11274 3.269737,0.22107 4.904924,0.32678 l 0,0 c 2.6e-5,0 5.2e-5,0 7.8e-5,0 6.016056,0.38892 12.034384,0.74233 18.054064,1.07042 2.6e-5,1e-5 5.2e-5,1e-5 7.8e-5,1e-5 19.909751,1.08516 39.83478,1.8959 59.767861,2.39393 l 4e-5,0 c 24.51706,0.61256 49.05152,0.77854 73.56502,0.0371 l 0,0 c 11.77936,-0.35629 23.55439,-0.92503 35.30073,-1.87563 l 0,0 c 10.29698,-0.83331 20.57978,-1.93886 30.76311,-3.67727 3.3315,-0.56872 6.53692,-1.73421 9.61535,-3.12907 2e-5,-2e-5 4e-5,-3e-5 7e-5,-3e-5 3.46936,-1.57201 6.79196,-3.45112 10.04199,-5.43733 6.83476,-4.17697 13.34318,-8.86574 20.11341,-13.1465 3.06474,-1.9378 6.18341,-3.80122 9.44629,-5.38277 2.75045,-1.33318 5.61563,-2.4899 8.62257,-3.0382 2.4912,-0.45425 5.12166,-0.43656 7.48626,0.46958 1e-5,10e-6 2e-5,10e-6 3e-5,10e-6 2.50929,0.9616 4.55349,2.90024 6.03744,5.14057 l 0,0 c 4.18873,6.32376 6.99723,13.52885 8.5179,20.96006 l 0,0 c 0.80422,3.93008 1.21623,7.95017 1.06289,11.95876 l 0,0 c -0.14799,3.86864 -0.83496,7.73726 -2.26977,11.33304 l 0,0 c -1.43438,3.59469 -3.65097,6.88331 -6.50388,9.49869 -3.29705,3.02253 -7.37,5.12217 -11.63943,6.45568 l -4e-5,10e-6 0,0 c -13.60525,4.24943 -28.38598,2.07789 -42.29149,-1.05216 -10e-6,-10e-6 -3e-5,-10e-6 -4e-5,-10e-6 -4.14138,-0.9322 -8.33598,-1.62716 -12.55506,-2.09554 -4.6193,-0.5128 -9.2814,-0.76812 -13.91768,-0.44275 -3.9077,0.27423 -7.91604,0.88126 -11.30067,2.85346 -1.3586,0.79165 -2.58673,1.84622 -3.4253,3.17637 0,10e-6 -1e-5,2e-5 -2e-5,3e-5 -0.86293,1.36881 -1.26685,2.99869 -1.2787,4.61675 -0.0129,1.76257 0.42341,3.53563 1.32529,5.05003 0.90003,1.51128 2.21611,2.74628 3.68439,3.71487 2e-5,0 3e-5,10e-6 3e-5,2e-5 3.58968,2.368 7.92222,3.35682 12.19153,3.87275 3e-5,0 5e-5,0 8e-5,10e-6 4.93088,0.59588 9.93517,0.48823 14.86422,-0.12259 4.45258,-0.55178 8.89335,-1.47819 13.02759,-3.22116 6.9301,-2.92169 14.02496,-5.5602 21.4007,-7.03023 4.45047,-0.88701 9.10093,-1.43676 13.50573,-0.34535 1.5037,0.37259 2.9634,0.96641 4.23315,1.85393 0,0 6e-5,5e-5 6e-5,5e-5 1.11659,0.78047 2.07131,1.79052 2.78841,2.94883 1.53583,2.48077 1.98381,5.49673 1.94835,8.41421 -0.0907,7.46074 -2.74079,14.65764 -5.67974,21.51573 -2.59075,6.04555 -5.62013,11.90389 -9.04267,17.52054 -1e-5,10e-6 -2e-5,2e-5 -3e-5,3e-5 -0.77816,1.27703 -1.79899,2.41328 -3.02739,3.26614 -1.18332,0.82157 -2.54298,1.37348 -3.94875,1.68819 -3.30648,0.74021 -6.76929,0.30562 -10.07603,-0.43346 -10e-6,0 -3e-5,-10e-6 -4e-5,-10e-6 -4.11825,-0.92046 -8.09716,-2.38033 -12.00496,-3.97294 -10e-6,0 -2e-5,-10e-6 -3e-5,-10e-6 -4.3107,-1.75681 -8.53769,-3.71124 -12.76316,-5.66416 -4.09201,-1.89124 -8.17865,-3.79899 -12.35043,-5.50706 l 0,0 c -3.49781,-1.43213 -7.05805,-2.77309 -10.76681,-3.50164 -1.45655,-0.28613 -2.94014,-0.47182 -4.42366,-0.4212 -1.23117,0.042 -2.47105,0.25515 -3.58868,0.77328 -1.04407,0.48402 -1.95254,1.25243 -2.60735,2.19878 -0.78915,1.14049 -1.23115,2.49086 -1.47965,3.85532 0,0 -10e-6,4e-5 -10e-6,4e-5 -0.17616,0.96727 -0.23715,1.96664 -0.0537,2.93255 0.14958,0.78741 0.47714,1.54375 0.97507,2.17182 1.09032,1.37531 2.82991,2.06859 4.53646,2.47842 1e-5,0 3e-5,0 4e-5,10e-6 2.33348,0.56038 4.75211,0.6663 7.15186,0.68659 2.92422,0.0247 5.84697,-0.12199 8.76748,-0.27112 3e-5,0 6e-5,0 8e-5,0 6.12648,-0.31283 12.28647,-0.76164 18.38281,-0.0788 10e-6,0 2e-5,10e-6 4e-5,10e-6 2.60689,0.292 5.21624,0.80075 7.61581,1.86056 2e-5,2e-5 4e-5,3e-5 7e-5,3e-5 2.08321,0.9201 3.99189,2.32975 5.23259,4.23946 2.55164,3.92754 2.96647,8.9462 2.20153,13.56695 -0.7708,4.65616 -2.76835,9.27077 -6.3344,12.36226 -1.19552,1.03643 -2.72996,1.62664 -4.29269,1.87431 0,0 -8e-5,2e-5 -8e-5,2e-5 -1.79248,0.28406 -3.62699,0.17862 -5.42483,-0.0693 -4.16786,-0.57481 -8.1917,-1.8936 -12.21904,-3.111 -3.49336,-1.056 -7.01741,-2.30832 -10.66689,-2.3098 0,0 -8e-5,0 -8e-5,0 -1.22374,-4.9e-4 -2.50987,0.19224 -3.48456,0.93218 -0.99456,0.75502 -1.45624,2.03355 -1.57651,3.27643 -0.14574,1.50604 -0.11057,3.04452 0.2784,4.50674 0,0 2e-5,8e-5 2e-5,8e-5 0.32054,1.20494 0.90058,2.34477 1.72189,3.28289 0.82416,0.94137 1.86961,1.67322 2.99339,2.22324 1.29171,0.63221 2.68374,1.04053 4.09288,1.32785 3.53985,0.72175 7.18555,0.74435 10.79632,0.62661 4.38752,-0.14307 8.76139,-0.55724 13.13048,-0.98371 9.23258,-0.9012 18.49628,-2.02987 27.75989,-1.54178 3e-5,0 5e-5,10e-6 8e-5,10e-6 4.02654,0.21215 8.07084,0.74093 11.87754,2.07022 3.31905,1.15901 6.45424,3.01856 8.70822,5.71652 3.69313,4.42058 5.47952,10.23533 5.8005,15.98665 0.30992,5.55315 -0.88555,11.56128 -4.86217,15.44972 -2e-5,10e-6 -5e-5,2e-5 -7e-5,3e-5 -2.43288,2.37895 -5.73049,3.74572 -9.09926,4.22488 -3.89872,0.55455 -7.87826,0.12758 -11.74372,-0.62455 -3e-5,-10e-6 -5e-5,-2e-5 -8e-5,-3e-5 -9.25438,-1.80069 -18.04404,-5.41285 -26.8342,-8.82152 -4.23845,-1.6436 -8.47729,-3.29393 -12.7974,-4.709 -3.54135,-1.15999 -7.147,-2.21646 -10.85547,-2.58249 -1.44395,-0.14252 -2.90746,-0.17178 -4.3412,0.0512 -1.20871,0.18798 -2.4008,0.56915 -3.42575,1.23683 -1.00156,0.65243 -1.81209,1.58173 -2.36698,2.64045 0,0 -3e-5,7e-5 -3e-5,7e-5 -0.68784,1.31241 -1.01698,2.78767 -1.16485,4.26201 -0.13819,1.37784 0.0791,2.8391 0.8898,3.9617 0.78115,1.08163 2.00219,1.77141 3.26309,2.2076 0,0 7e-5,2e-5 7e-5,2e-5 3.56363,1.23275 7.45398,1.03229 11.2187,0.8179 4.48726,-0.25554 8.9507,-0.82075 13.42889,-1.20379 2.00469,-0.17147 4.01391,-0.31317 6.02591,-0.31948 1.59569,-0.005 3.20539,0.054 4.75765,0.42375 0,0 8e-5,2e-5 8e-5,2e-5 1.06123,0.25282 2.0731,0.75135 2.86426,1.50248 0.74832,0.71046 1.28673,1.62382 1.63422,2.59541 0.80904,2.26213 0.72141,4.75372 0.3523,7.12765 -1e-5,3e-5 -1e-5,5e-5 -2e-5,8e-5 -0.40078,2.57766 -1.17795,5.09332 -2.24544,7.47353 -2e-5,2e-5 -2e-5,5e-5 -3e-5,7e-5 -0.83716,1.86662 -1.79688,3.74268 -3.29483,5.13597 -46.3273,-1.04347 -92.65772,-1.94064 -138.98851,-2.81523 -3e-5,0 -6e-5,0 -8e-5,0 -36.26687,-0.68462 -72.528967,-1.60354 -108.786623,-2.66981 0.45326,-65.5699 0.90652,-131.13981 1.35978,-196.70971"
       style="fill:#916f6f;fill-rule:evenodd;stroke:none;stroke-width:1px;stroke-linecap:butt;stroke-linejoin:miter;stroke-opacity:1" />
    <path
       style="fill:#ffb380;fill-rule:evenodd;stroke:none;stroke-width:1px;stroke-linecap:butt;stroke-linejoin:miter;stroke-opacity:1"
       d="m 30.744453,805.598 0.02101,-0.002 c 0.0038,-4.2e-4 0.07906,-0.009 0.08288,-0.009 0.108969,-0.0119 0.217948,-0.0238 0.326932,-0.0356 0.426671,-0.0462 0.853418,-0.0916 1.280205,-0.13674 l 0,0 c 1.639233,-0.17319 3.279062,-0.34071 4.919225,-0.50486 l 3e-5,0 0,0 c 2.1e-5,0 4.1e-5,0 6.2e-5,-10e-6 6.029937,-0.60349 12.064404,-1.16131 18.101667,-1.68648 l 6.1e-5,0 0,0 c 19.932365,-1.73388 39.89597,-3.11509 59.8798,-4.09074 1e-5,0 2e-5,0 3e-5,0 24.50867,-1.19656 49.05602,-1.81853 73.58749,-1.25849 11.76071,0.26849 23.51871,0.81267 35.23632,1.85382 1e-5,0 2e-5,0 3e-5,0 10.27234,0.91273 20.52619,2.18171 30.62596,4.26705 1e-5,0 2e-5,0 3e-5,1e-5 5.07927,1.04874 10.26725,1.65427 15.21369,3.21362 10e-6,10e-6 2e-5,10e-6 3e-5,2e-5 2.34396,0.73893 4.64429,1.69332 6.65459,3.10714 1.88799,1.32782 3.47662,3.11667 4.39843,5.23278 1.68715,3.87303 1.06598,8.41167 -0.4824,12.34223 -1.61779,4.10679 -4.20415,7.84962 -7.54482,10.73456 -1.40774,1.2157 -3.15405,1.99008 -4.95316,2.46216 -2.0414,0.53566 -4.16141,0.71679 -6.27161,0.75239 -1e-5,0 -2e-5,0 -3e-5,0 -4.70348,0.0793 -9.38613,-0.55058 -14.06549,-1.03278 -10e-6,0 -2e-5,0 -3e-5,0 -4.00773,-0.41298 -8.10751,-0.97434 -12.03967,-0.0966 -1.38933,0.31013 -2.77486,0.8757 -3.73941,1.92262 -1.00265,1.08828 -1.3972,2.62078 -1.40803,4.10049 0,10e-6 1e-5,2e-5 1e-5,3e-5 -0.0115,1.56615 0.41096,3.19867 1.50326,4.32109 1e-5,10e-6 1e-5,2e-5 2e-5,3e-5 1.07496,1.1046 2.60338,1.65222 4.11669,1.94473 10e-6,0 2e-5,0 3e-5,0 4.33816,0.83852 8.81504,0.17531 13.20868,-0.29233 5.00945,-0.53319 10.03572,-1.1977 15.06765,-0.95563 10e-6,0 2e-5,10e-6 3e-5,10e-6 2.18379,0.10505 4.3783,0.38886 6.4403,1.11559 1e-5,10e-6 2e-5,10e-6 3e-5,10e-6 1.81778,0.64066 3.52544,1.67732 4.75643,3.16037 3.78555,4.56074 5.48263,10.60714 5.66485,16.53145 0.17931,5.82994 -1.17344,11.98222 -5.07206,16.32055 -1.34379,1.49534 -3.19422,2.47687 -5.13901,2.98639 -2.21219,0.57958 -4.53115,0.63948 -6.81399,0.50404 -10e-6,0 -2e-5,0 -3e-5,0 -5.35951,-0.31796 -10.59848,-1.66209 -15.82904,-2.87312 -4.62977,-1.07192 -9.31273,-2.38083 -14.05695,-2.10502 -1.63173,0.0949 -3.32258,0.44312 -4.59891,1.46416 -1.28231,1.02583 -1.89694,2.69445 -2.03784,4.33055 0,10e-6 1e-5,2e-5 1e-5,3e-5 -0.15769,1.83091 0.1964,3.7877 1.4079,5.16949 1.20234,1.37133 2.99068,2.08659 4.76487,2.50899 5.15389,1.22705 10.54976,0.69207 15.83991,0.40484 5.99348,-0.32542 12.02039,-0.797 17.98573,-0.13193 2.55117,0.28442 5.10435,0.78887 7.44713,1.83802 2.05954,0.9223 3.93368,2.33783 5.16309,4.23016 2.55165,3.92752 2.96647,8.94619 2.20153,13.56692 -0.7708,4.65617 -2.76834,9.2708 -6.3344,12.36228 -1.19357,1.03473 -2.72415,1.62668 -4.28412,1.87524 -1.78533,0.28447 -3.61294,0.18012 -5.40381,-0.0671 -4.15155,-0.57314 -8.15866,-1.89077 -12.1696,-3.10581 -3.48963,-1.05712 -7.01076,-2.30596 -10.657,-2.30876 -1.23226,-9.5e-4 -2.52493,0.19294 -3.51307,0.92918 -1e-5,10e-6 -1e-5,2e-5 -1e-5,3e-5 -1.00653,0.74994 -1.49508,2.02291 -1.63707,3.27004 -0.15295,1.34343 0.0378,2.79385 0.88804,3.8452 10e-6,10e-6 10e-6,10e-6 2e-5,2e-5 0.82302,1.01773 2.09658,1.56716 3.36527,1.88896 3.7317,0.94653 7.66205,0.54369 11.50531,0.31822 2e-5,0 4e-5,0 6e-5,0 4.47812,-0.26272 8.97208,-0.64312 13.44316,-0.27983 0,0 6e-5,10e-6 6e-5,10e-6 1.96567,0.15972 3.93409,0.46775 5.78762,1.1414 1.61971,0.58868 3.15337,1.49397 4.27938,2.79862 2.99928,3.47515 4.66012,7.98833 5.1869,12.54847 0.5151,4.45904 -0.10181,9.2473 -2.74535,12.87498 -1.05174,1.44331 -2.58897,2.48592 -4.25216,3.13637 0,0 -6e-5,3e-5 -6e-5,3e-5 -1.89013,0.73919 -3.92446,1.0447 -5.94966,1.17731 0,0 -6e-5,0 -6e-5,0 -4.72502,0.30938 -9.45788,-0.27362 -14.17009,-0.73902 -4.15826,-0.4107 -8.39194,-1.01711 -12.49459,-0.22462 -1.4175,0.27381 -2.85451,0.77984 -3.85534,1.82032 -1.0094,1.04941 -1.36953,2.58138 -1.32008,4.03661 0.0487,1.43255 0.48001,2.88115 1.40206,3.97859 0,0 4e-5,5e-5 4e-5,5e-5 0.90016,1.07135 2.17746,1.76866 3.50352,2.21548 0,0 6e-5,2e-5 6e-5,2e-5 3.54672,1.19504 7.39893,1.03667 11.135,0.81513 2e-5,-10e-6 4e-5,-10e-6 6e-5,-10e-6 4.34852,-0.25786 8.67189,-0.82926 13.01071,-1.21758 2e-5,0 4e-5,0 6e-5,0 3.51025,-0.31417 7.10426,-0.7207 10.5326,0.096 1.06124,0.2528 2.07312,0.75131 2.86429,1.50243 0,0 5e-5,4e-5 5e-5,4e-5 0.74831,0.71045 1.28673,1.62379 1.63422,2.59536 0.80904,2.26211 0.72141,4.75367 0.3523,7.12758 -0.40079,2.57769 -1.17798,5.09341 -2.24549,7.47361 -0.83715,1.8666 -1.79687,3.7427 -3.29479,5.136 0,0 -4e-5,0 -4e-5,0 -46.32733,-1.0435 -92.65777,-1.9407 -138.98859,-2.8153 -36.26687,-0.6846 -72.528967,-1.6035 -108.786623,-2.6698 0.45326,-65.56986 0.90652,-131.13973 1.35978,-196.70959"
       id="path4210"
       inkscape:path-effect="#path-effect4212"
       inkscape:original-d="m 30.737167,805.59881 c 0,0 150.920363,-16.70757 224.068993,-1.60424 9.36757,1.93417 22.44676,2.78433 26.26677,11.55357 3.25259,7.46666 -1.86324,17.75369 -8.02722,23.07679 -10.90974,9.4214 -42.3719,-6.3061 -42.47743,8.1083 -0.11242,15.3466 35.29122,-2.5151 45.09313,9.2939 6.99516,8.4276 7.9135,24.7056 0.59279,32.852 -10.8431,12.0659 -47.08384,-11.8554 -48.47577,4.307 -1.5572,18.0813 42.7215,-1.1989 52.60864,14.0196 4.76817,7.3392 2.48021,20.1962 -4.13287,25.9292 -9.48757,8.225 -36.24427,-11.8831 -37.66468,0.5928 -1.52536,13.3975 30.45876,-0.4953 39.26892,9.7126 5.5625,6.44505 7.45538,18.54305 2.44155,25.42345 -8.44885,11.5944 -42.52923,-5.1309 -42.04204,9.207 0.45301,13.3321 29.12759,3.3967 39.58411,5.8877 9.45045,2.2512 3.715,19.73822 -0.68946,23.83502 -143.85838,-3.2403 -144.18613,-2.4387 -247.775213,-5.4851 z"
       inkscape:connector-curvature="0"
       sodipodi:nodetypes="caaaaaaaaaaaaasccc" />
    <text
       xml:space="preserve"
       style="font-style:normal;font-variant:normal;font-weight:normal;font-stretch:normal;font-size:37.5px;line-height:125%;font-family:Calibri;-inkscape-font-specification:'Calibri, Normal';text-align:start;letter-spacing:0.06px;word-spacing:0px;writing-mode:lr-tb;text-anchor:start;fill:#0000ff;fill-opacity:1;stroke:none;stroke-width:1px;stroke-linecap:butt;stroke-linejoin:miter;stroke-opacity:1"
       x="332.86789"
       y="254.87056"
       id="text4220"
       sodipodi:linespacing="125%"
       transform="matrix(0.70426579,0.7099364,-0.7099364,0.70426579,0,0)"><tspan
         sodipodi:role="line"
         id="tspan4222"
         x="332.86789"
         y="254.87056">epithelial cells</tspan></text>
    <path
       sodipodi:type="star"
       style="opacity:0.77999998;fill:#5fd38d;fill-opacity:1;fill-rule:evenodd;stroke:#d35f5f;stroke-width:0.14740144;stroke-linecap:butt;stroke-linejoin:miter;stroke-miterlimit:4;stroke-dasharray:none;stroke-dashoffset:0;stroke-opacity:1;color:#000000;clip-rule:nonzero;display:inline;overflow:visible;visibility:visible;isolation:auto;mix-blend-mode:normal;color-interpolation:sRGB;color-interpolation-filters:linearRGB;solid-color:#000000;solid-opacity:1;filter-blend-mode:normal;filter-gaussianBlur-deviation:0;color-rendering:auto;image-rendering:auto;shape-rendering:auto;text-rendering:auto;enable-background:accumulate"
       id="path4226"
       sodipodi:sides="6"
       sodipodi:cx="341.21507"
       sodipodi:cy="972.63926"
       sodipodi:r1="14.141642"
       sodipodi:r2="30.0886"
       sodipodi:arg1="0.63019391"
       sodipodi:arg2="1.1537927"
       inkscape:flatsided="false"
       inkscape:rounded="0.33"
       inkscape:randomized="0"
       d="m 352.64028,980.97297 c -3.73219,5.11671 6.55186,16.61141 0.76134,19.17653 -5.79052,2.5651 -7.39385,-12.77503 -13.69114,-13.44884 -6.29729,-0.67382 -11.10997,13.97974 -16.22668,10.2476 -5.1167,-3.73218 7.36656,-12.79077 4.80146,-18.58129 -2.5651,-5.79052 -17.66184,-2.63163 -16.98802,-8.92892 0.67381,-6.29729 14.76041,-0.0158 18.4926,-5.13246 3.73218,-5.1167 -6.55187,-16.61141 -0.76135,-19.17651 5.79052,-2.56511 7.39386,12.77501 13.69114,13.44883 6.29729,0.67381 11.10998,-13.97979 16.22668,-10.24761 5.11671,3.73219 -7.36656,12.79078 -4.80146,18.5813 2.56511,5.79052 17.66184,2.63162 16.98803,8.92891 -0.67382,6.29729 -14.76042,0.0158 -18.4926,5.13246 z"
       inkscape:transform-center-x="0.054760672"
       inkscape:transform-center-y="0.00053167991" />
    <path
       inkscape:transform-center-y="0.00063811905"
       inkscape:transform-center-x="0.061090118"
       d="m 346.77899,882.06355 c -4.1653,5.71049 7.31219,18.53914 0.84969,21.40192 -6.46249,2.86278 -8.25189,-14.25753 -15.27997,-15.00954 -7.02807,-0.75201 -12.39926,15.60211 -18.10975,11.43681 -5.71049,-4.16529 8.22144,-14.27511 5.35866,-20.73761 -2.86278,-6.4625 -19.71146,-2.93702 -18.95945,-9.9651 0.75201,-7.02808 16.47333,-0.0176 20.63863,-5.72807 4.1653,-5.71049 -7.3122,-18.53914 -0.8497,-21.40192 6.4625,-2.86277 8.2519,14.25754 15.27997,15.00955 7.02808,0.75201 12.39927,-15.60212 18.10976,-11.43682 5.71048,4.1653 -8.22144,14.27512 -5.35866,20.73761 2.86278,6.4625 19.71146,2.93702 18.95945,9.9651 -0.75201,7.02808 -16.47334,0.0176 -20.63863,5.72807 z"
       inkscape:randomized="0"
       inkscape:rounded="0.33"
       inkscape:flatsided="false"
       sodipodi:arg2="1.1537927"
       sodipodi:arg1="0.63019391"
       sodipodi:r2="33.580322"
       sodipodi:r1="15.782751"
       sodipodi:cy="872.76274"
       sodipodi:cx="334.02788"
       sodipodi:sides="6"
       id="path4228"
       style="opacity:0.77999998;fill:#5fd38d;fill-opacity:1;fill-rule:evenodd;stroke:#d35f5f;stroke-width:0.14740144;stroke-linecap:butt;stroke-linejoin:miter;stroke-miterlimit:4;stroke-dasharray:none;stroke-dashoffset:0;stroke-opacity:1"
       sodipodi:type="star" />
    <path
       sodipodi:type="star"
       style="opacity:0.77999998;fill:#5fd38d;fill-opacity:1;fill-rule:evenodd;stroke:#d35f5f;stroke-width:0.14740144;stroke-linecap:butt;stroke-linejoin:miter;stroke-miterlimit:4;stroke-dasharray:none;stroke-dashoffset:0;stroke-opacity:1;color:#000000;clip-rule:nonzero;display:inline;overflow:visible;visibility:visible;isolation:auto;mix-blend-mode:normal;color-interpolation:sRGB;color-interpolation-filters:linearRGB;solid-color:#000000;solid-opacity:1;filter-blend-mode:normal;filter-gaussianBlur-deviation:0;color-rendering:auto;image-rendering:auto;shape-rendering:auto;text-rendering:auto;enable-background:accumulate"
       id="path4230"
       sodipodi:sides="6"
       sodipodi:cx="492.62593"
       sodipodi:cy="887.59312"
       sodipodi:r1="14.141642"
       sodipodi:r2="30.0886"
       sodipodi:arg1="0.63019391"
       sodipodi:arg2="1.1537927"
       inkscape:flatsided="false"
       inkscape:rounded="0.33"
       inkscape:randomized="0"
       d="m 504.05114,895.92683 c -3.73219,5.1167 6.55186,16.61141 0.76134,19.17652 -5.79052,2.5651 -7.39385,-12.77502 -13.69114,-13.44884 -6.29729,-0.67381 -11.10997,13.97979 -16.22668,10.24761 -5.11671,-3.73219 7.36656,-12.79077 4.80146,-18.58129 -2.56511,-5.79052 -17.66184,-2.63163 -16.98803,-8.92892 0.67382,-6.29729 14.76042,-0.0158 18.49261,-5.13246 3.73218,-5.11671 -6.55187,-16.61141 -0.76135,-19.17652 5.79052,-2.5651 7.39385,12.77502 13.69114,13.44883 6.29729,0.67382 11.10998,-13.97978 16.22668,-10.2476 5.11671,3.73219 -7.36656,12.79077 -4.80146,18.58129 2.56511,5.79052 17.66184,2.63163 16.98803,8.92892 -0.67382,6.29729 -14.76042,0.0158 -18.4926,5.13246 z"
       inkscape:transform-center-x="0.054760672"
       inkscape:transform-center-y="0.00053167991" />
    <path
       inkscape:transform-center-y="0.00052793567"
       inkscape:transform-center-x="0.05215144"
       d="m 422.83839,884.39831 c -3.55628,4.87554 6.24307,15.82849 0.72546,18.27269 -5.5176,2.44421 -7.04537,-12.17291 -13.04585,-12.81496 -6.00049,-0.64206 -10.58635,13.3209 -15.46189,9.76462 -4.87555,-3.55629 7.01936,-12.18793 4.57516,-17.70553 -2.44421,-5.51761 -16.82941,-2.50759 -16.18736,-8.50808 0.64206,-6.00049 14.06474,-0.015 17.62102,-4.89056 3.55628,-4.87555 -6.24307,-15.82849 -0.72546,-18.2727 5.5176,-2.44421 7.04537,12.17291 13.04585,12.81497 6.00049,0.64205 10.58635,-13.3209 15.46189,-9.76462 4.87555,3.55628 -7.01936,12.18792 -4.57516,17.70553 2.44421,5.5176 16.82941,2.50759 16.18736,8.50808 -0.64206,6.00049 -14.06474,0.015 -17.62102,4.89056 z"
       inkscape:randomized="0"
       inkscape:rounded="0.33"
       inkscape:flatsided="false"
       sodipodi:arg2="1.1537927"
       sodipodi:arg1="0.63019391"
       sodipodi:r2="28.670477"
       sodipodi:r1="13.475123"
       sodipodi:cy="876.45738"
       sodipodi:cx="411.95167"
       sodipodi:sides="6"
       id="path4232"
       style="opacity:0.77999998;fill:#5fd38d;fill-opacity:1;fill-rule:evenodd;stroke:#d35f5f;stroke-width:0.14740144;stroke-linecap:butt;stroke-linejoin:miter;stroke-miterlimit:4;stroke-dasharray:none;stroke-dashoffset:0;stroke-opacity:1;color:#000000;clip-rule:nonzero;display:inline;overflow:visible;visibility:visible;isolation:auto;mix-blend-mode:normal;color-interpolation:sRGB;color-interpolation-filters:linearRGB;solid-color:#000000;solid-opacity:1;filter-blend-mode:normal;filter-gaussianBlur-deviation:0;color-rendering:auto;image-rendering:auto;shape-rendering:auto;text-rendering:auto;enable-background:accumulate"
       sodipodi:type="star" />
    <path
       sodipodi:type="star"
       style="opacity:0.77999998;fill:#5fd38d;fill-opacity:1;fill-rule:evenodd;stroke:#d35f5f;stroke-width:0.14740144;stroke-linecap:butt;stroke-linejoin:miter;stroke-miterlimit:4;stroke-dasharray:none;stroke-dashoffset:0;stroke-opacity:1;color:#000000;clip-rule:nonzero;display:inline;overflow:visible;visibility:visible;isolation:auto;mix-blend-mode:normal;color-interpolation:sRGB;color-interpolation-filters:linearRGB;solid-color:#000000;solid-opacity:1;filter-blend-mode:normal;filter-gaussianBlur-deviation:0;color-rendering:auto;image-rendering:auto;shape-rendering:auto;text-rendering:auto;enable-background:accumulate"
       id="path4234"
       sodipodi:sides="6"
       sodipodi:cx="435.8849"
       sodipodi:cy="949.87089"
       sodipodi:r1="15.474679"
       sodipodi:r2="32.92485"
       sodipodi:arg1="0.63019391"
       sodipodi:arg2="1.1537927"
       inkscape:flatsided="false"
       inkscape:rounded="0.33"
       inkscape:randomized="0"
       d="m 448.38709,958.99016 c -4.084,5.59902 7.16946,18.17726 0.83311,20.98416 -6.33635,2.8069 -8.09082,-13.97923 -14.98172,-14.71656 -6.89089,-0.73733 -12.15723,15.29757 -17.75625,11.21357 -5.59903,-4.08399 8.06096,-13.99647 5.25406,-20.33282 -2.8069,-6.33636 -19.32671,-2.87969 -18.58938,-9.77059 0.73734,-6.89089 16.15179,-0.0172 20.23578,-5.61626 4.08399,-5.59902 -7.16947,-18.17726 -0.83311,-20.98416 6.33635,-2.8069 8.09082,13.97923 14.98171,14.71656 6.89089,0.73733 12.15724,-15.29757 17.75626,-11.21357 5.59902,4.08399 -8.06096,13.99647 -5.25406,20.33282 2.8069,6.33636 19.3267,2.87969 18.58937,9.77059 -0.73733,6.89089 -16.15178,0.0172 -20.23577,5.61626 z"
       inkscape:transform-center-x="0.059918101"
       inkscape:transform-center-y="0.00060020356" />
    <text
       xml:space="preserve"
       style="font-style:normal;font-variant:normal;font-weight:normal;font-stretch:normal;font-size:30px;line-height:125%;font-family:Calibri;-inkscape-font-specification:'Calibri, Normal';text-align:start;letter-spacing:0.06px;word-spacing:0px;writing-mode:lr-tb;text-anchor:start;fill:#0000ff;fill-opacity:1;stroke:none;stroke-width:1px;stroke-linecap:butt;stroke-linejoin:miter;stroke-opacity:1"
       x="332.37372"
       y="1031.0846"
       id="text4240"
       sodipodi:linespacing="125%"><tspan
         sodipodi:role="line"
         id="tspan4242"
         x="332.37372"
         y="1031.0846">microbiota</tspan></text>
    <circle
       r="5.9113579"
       cy="887.0918"
       cx="490.7778"
       id="circle4338"
       style="opacity:0.77999998;fill:#ff0000;fill-opacity:0.91124262;fill-rule:evenodd;stroke:#ff0000;stroke-width:2.43057299;stroke-linecap:butt;stroke-linejoin:bevel;stroke-miterlimit:4;stroke-dasharray:none;stroke-dashoffset:0;stroke-opacity:1;color:#000000;clip-rule:nonzero;display:inline;overflow:visible;visibility:visible;isolation:auto;mix-blend-mode:normal;color-interpolation:sRGB;color-interpolation-filters:linearRGB;solid-color:#000000;solid-opacity:1;filter-blend-mode:normal;filter-gaussianBlur-deviation:0;color-rendering:auto;image-rendering:auto;shape-rendering:auto;text-rendering:auto;enable-background:accumulate" />
    <text
       sodipodi:linespacing="125%"
       id="text4354"
       y="337.76712"
       x="292.38712"
       style="font-style:normal;font-variant:normal;font-weight:normal;font-stretch:normal;font-size:22.5px;line-height:125%;font-family:Calibri;-inkscape-font-specification:'Calibri, Normal';text-align:center;letter-spacing:0.06px;word-spacing:0px;writing-mode:lr-tb;text-anchor:middle;fill:#0000ff;fill-opacity:1;stroke:none;stroke-width:1px;stroke-linecap:butt;stroke-linejoin:miter;stroke-opacity:1"
       xml:space="preserve"><tspan
         id="tspan4358"
         y="337.76712"
         x="292.41711"
         sodipodi:role="line">tissue-derived self protein</tspan><tspan
         y="365.89212"
         x="292.41711"
         sodipodi:role="line"
         id="tspan4407">cross-reactive to tumor protein B</tspan></text>
    <flowRoot
       transform="translate(22.03333,-2.4611804)"
       xml:space="preserve"
       id="flowRoot4389"
       style="font-style:normal;font-variant:normal;font-weight:normal;font-stretch:normal;font-size:25px;line-height:125%;font-family:Calibri;-inkscape-font-specification:'Calibri, Normal';text-align:center;letter-spacing:0.06px;word-spacing:0px;writing-mode:lr-tb;text-anchor:middle;fill:#000000;fill-opacity:1;stroke:none;stroke-width:1px;stroke-linecap:butt;stroke-linejoin:miter;stroke-opacity:1"><flowRegion
         id="flowRegion4391"><rect
           id="rect4393"
           width="290.6619"
           height="238.34276"
           x="284.84866"
           y="465.05905" /></flowRegion><flowPara
         id="flowPara4395" /></flowRoot>    <flowRoot
       transform="translate(22.03333,-2.4611804)"
       xml:space="preserve"
       id="flowRoot4397"
       style="font-style:normal;font-variant:normal;font-weight:normal;font-stretch:normal;font-size:25px;line-height:125%;font-family:Calibri;-inkscape-font-specification:'Calibri, Normal';text-align:center;letter-spacing:0.06px;word-spacing:0px;writing-mode:lr-tb;text-anchor:middle;fill:#000000;fill-opacity:1;stroke:none;stroke-width:1px;stroke-linecap:butt;stroke-linejoin:miter;stroke-opacity:1"><flowRegion
         id="flowRegion4399"><rect
           id="rect4401"
           width="241.24939"
           height="197.6501"
           x="283.39536"
           y="476.68552" /></flowRegion><flowPara
         id="flowPara4403" /></flowRoot>    <circle
       style="opacity:0.77999998;fill:#ff0000;fill-opacity:0.91124262;fill-rule:evenodd;stroke:#ff0000;stroke-width:2.43057299;stroke-linecap:butt;stroke-linejoin:bevel;stroke-miterlimit:4;stroke-dasharray:none;stroke-dashoffset:0;stroke-opacity:1;color:#000000;clip-rule:nonzero;display:inline;overflow:visible;visibility:visible;isolation:auto;mix-blend-mode:normal;color-interpolation:sRGB;color-interpolation-filters:linearRGB;solid-color:#000000;solid-opacity:1;filter-blend-mode:normal;filter-gaussianBlur-deviation:0;color-rendering:auto;image-rendering:auto;shape-rendering:auto;text-rendering:auto;enable-background:accumulate"
       id="circle4409"
       cx="333.8204"
       cy="874.01196"
       r="5.9113579" />
    <text
       xml:space="preserve"
       style="font-style:normal;font-variant:normal;font-weight:normal;font-stretch:normal;font-size:22.5px;line-height:125%;font-family:Calibri;-inkscape-font-specification:'Calibri, Normal';text-align:center;letter-spacing:0.06px;word-spacing:0px;writing-mode:lr-tb;text-anchor:middle;fill:#0000ff;fill-opacity:1;stroke:none;stroke-width:1px;stroke-linecap:butt;stroke-linejoin:miter;stroke-opacity:1"
       x="674.88782"
       y="964.4657"
       id="text4259"
       sodipodi:linespacing="125%"><tspan
         sodipodi:role="line"
         x="674.91785"
         y="964.4657"
         id="tspan4263">microbiota-derived</tspan><tspan
         sodipodi:role="line"
         x="674.91779"
         y="992.5907"
         id="tspan4425">nonself protein</tspan><tspan
         sodipodi:role="line"
         x="674.91785"
         y="1020.7157"
         id="tspan4427">cross-reactive to Tumor protein B</tspan></text>
    <flowRoot
       transform="translate(22.03333,-2.4611804)"
       xml:space="preserve"
       id="flowRoot4429"
       style="font-style:normal;font-variant:normal;font-weight:normal;font-stretch:normal;font-size:25px;line-height:125%;font-family:Calibri;-inkscape-font-specification:'Calibri, Normal';text-align:center;letter-spacing:0.06px;word-spacing:0px;writing-mode:lr-tb;text-anchor:middle;fill:#000000;fill-opacity:1;stroke:none;stroke-width:1px;stroke-linecap:butt;stroke-linejoin:miter;stroke-opacity:1"><flowRegion
         id="flowRegion4431"><rect
           id="rect4433"
           width="33.426121"
           height="27.612881"
           x="505.75171"
           y="645.26941" /></flowRegion><flowPara
         id="flowPara4435" /></flowRoot>    <text
       xml:space="preserve"
       style="font-style:normal;font-variant:normal;font-weight:normal;font-stretch:normal;font-size:20px;line-height:125%;font-family:Calibri;-inkscape-font-specification:'Calibri, Normal';text-align:center;letter-spacing:0.06px;word-spacing:0px;writing-mode:lr-tb;text-anchor:middle;fill:#0000ff;fill-opacity:1;stroke:none;stroke-width:1px;stroke-linecap:butt;stroke-linejoin:miter;stroke-opacity:1"
       x="854.44122"
       y="833.66241"
       id="text4437"
       sodipodi:linespacing="125%"><tspan
         sodipodi:role="line"
         id="tspan4439"
         x="854.47125"
         y="833.66241">{productive}</tspan></text>
    <text
       sodipodi:linespacing="125%"
       id="text4441"
       y="483.58087"
       x="578.07471"
       style="font-style:normal;font-variant:normal;font-weight:normal;font-stretch:normal;font-size:20px;line-height:125%;font-family:Calibri;-inkscape-font-specification:'Calibri, Normal';text-align:center;letter-spacing:0.06px;word-spacing:0px;writing-mode:lr-tb;text-anchor:middle;fill:#0000ff;fill-opacity:1;stroke:none;stroke-width:1px;stroke-linecap:butt;stroke-linejoin:miter;stroke-opacity:1"
       xml:space="preserve"><tspan
         y="483.58087"
         x="578.10474"
         id="tspan4443"
         sodipodi:role="line">{non-</tspan><tspan
         y="508.58087"
         x="578.10474"
         sodipodi:role="line"
         id="tspan4445">productive}</tspan></text>
    <text
       xml:space="preserve"
       style="font-style:normal;font-variant:normal;font-weight:normal;font-stretch:normal;font-size:45px;line-height:125%;font-family:Calibri;-inkscape-font-specification:'Calibri, Normal';text-align:center;letter-spacing:0.06px;word-spacing:0px;writing-mode:lr-tb;text-anchor:middle;fill:#00ffff;fill-opacity:1;stroke:none;stroke-width:1px;stroke-linecap:butt;stroke-linejoin:miter;stroke-opacity:1;"
       x="130.74974"
       y="704.97681"
       id="text4221-8"
       sodipodi:linespacing="125%"><tspan
         sodipodi:role="line"
         id="tspan4223-8"
         x="130.77974"
         y="704.97681">Tumor</tspan></text>
    <circle
       style="opacity:0.77999998;fill:#ff0000;fill-opacity:0.91124262;fill-rule:evenodd;stroke:#ff0000;stroke-width:2.43057299;stroke-linecap:butt;stroke-linejoin:bevel;stroke-miterlimit:4;stroke-dasharray:none;stroke-dashoffset:0;stroke-opacity:1;color:#000000;clip-rule:nonzero;display:inline;overflow:visible;visibility:visible;isolation:auto;mix-blend-mode:normal;color-interpolation:sRGB;color-interpolation-filters:linearRGB;solid-color:#000000;solid-opacity:1;filter-blend-mode:normal;filter-gaussianBlur-deviation:0;color-rendering:auto;image-rendering:auto;shape-rendering:auto;text-rendering:auto;enable-background:accumulate"
       id="circle4350"
       cx="181.88977"
       cy="750.21472"
       r="5.9113579" />
    <circle
       style="opacity:0.77999998;fill:#ff0000;fill-opacity:0.91124262;fill-rule:evenodd;stroke:#ff0000;stroke-width:2.43057299;stroke-linecap:butt;stroke-linejoin:bevel;stroke-miterlimit:4;stroke-dasharray:none;stroke-dashoffset:0;stroke-opacity:1;color:#000000;clip-rule:nonzero;display:inline;overflow:visible;visibility:visible;isolation:auto;mix-blend-mode:normal;color-interpolation:sRGB;color-interpolation-filters:linearRGB;solid-color:#000000;solid-opacity:1;filter-blend-mode:normal;filter-gaussianBlur-deviation:0;color-rendering:auto;image-rendering:auto;shape-rendering:auto;text-rendering:auto;enable-background:accumulate"
       id="circle4350-5"
       cx="217.96707"
       cy="718.64709"
       r="5.9113579" />
    <circle
       style="opacity:0.77999998;fill:#ff0000;fill-opacity:0.91124262;fill-rule:evenodd;stroke:#ff0000;stroke-width:2.43057299;stroke-linecap:butt;stroke-linejoin:bevel;stroke-miterlimit:4;stroke-dasharray:none;stroke-dashoffset:0;stroke-opacity:1;color:#000000;clip-rule:nonzero;display:inline;overflow:visible;visibility:visible;isolation:auto;mix-blend-mode:normal;color-interpolation:sRGB;color-interpolation-filters:linearRGB;solid-color:#000000;solid-opacity:1;filter-blend-mode:normal;filter-gaussianBlur-deviation:0;color-rendering:auto;image-rendering:auto;shape-rendering:auto;text-rendering:auto;enable-background:accumulate"
       id="circle4350-50"
       cx="225.48318"
       cy="781.78241"
       r="5.9113579" />
    <circle
       style="opacity:0.77999998;fill:#00ffff;fill-opacity:1;fill-rule:evenodd;stroke:#00ffff;stroke-width:0.91003513;stroke-linecap:butt;stroke-linejoin:miter;stroke-miterlimit:4;stroke-dasharray:none;stroke-dashoffset:0;stroke-opacity:1"
       id="circle4350-0"
       cx="288.61847"
       cy="605.90552"
       r="5.9113579" />
    <circle
       style="opacity:0.77999998;fill:#00ffff;fill-opacity:1;fill-rule:evenodd;stroke:#00ffff;stroke-width:0.91003513;stroke-linecap:butt;stroke-linejoin:miter;stroke-miterlimit:4;stroke-dasharray:none;stroke-dashoffset:0;stroke-opacity:1"
       id="circle4350-9"
       cx="290.1217"
       cy="663.02789"
       r="5.9113579" />
    <text
       xml:space="preserve"
       style="font-style:normal;font-variant:normal;font-weight:normal;font-stretch:normal;font-size:30px;line-height:125%;font-family:Calibri;-inkscape-font-specification:'Calibri, Normal';text-align:center;letter-spacing:0.06px;word-spacing:0px;writing-mode:lr-tb;text-anchor:middle;fill:#0000ff;fill-opacity:1;stroke:none;stroke-width:1px;stroke-linecap:butt;stroke-linejoin:miter;stroke-opacity:1"
       x="579.35052"
       y="464.51157"
       id="text4313-8"
       sodipodi:linespacing="125%"><tspan
         sodipodi:role="line"
         id="tspan4315-3"
         x="579.38055"
         y="464.51157">non-Th1</tspan></text>
    <circle
       r="7.4179878"
       cy="971.18829"
       cx="554.6886"
       id="circle4192-3"
       style="opacity:0.77999998;fill:#ff0000;fill-opacity:0.91124262;fill-rule:evenodd;stroke:#ff0000;stroke-width:2.43057299;stroke-linecap:butt;stroke-linejoin:bevel;stroke-miterlimit:4;stroke-dasharray:none;stroke-dashoffset:0;stroke-opacity:1" />
    <circle
       style="color:#000000;clip-rule:nonzero;display:inline;overflow:visible;visibility:visible;opacity:0.77999998;isolation:auto;mix-blend-mode:normal;color-interpolation:sRGB;color-interpolation-filters:linearRGB;solid-color:#000000;solid-opacity:1;fill:#ff0000;fill-opacity:0.91124262;fill-rule:evenodd;stroke:#ff0000;stroke-width:2.43057299;stroke-linecap:butt;stroke-linejoin:bevel;stroke-miterlimit:4;stroke-dasharray:none;stroke-dashoffset:0;stroke-opacity:1;color-rendering:auto;image-rendering:auto;shape-rendering:auto;text-rendering:auto;enable-background:accumulate"
       id="circle4350-5-8"
       cx="192.41231"
       cy="428.52542"
       r="5.9113579" />
    <circle
       style="color:#000000;clip-rule:nonzero;display:inline;overflow:visible;visibility:visible;opacity:0.77999998;isolation:auto;mix-blend-mode:normal;color-interpolation:sRGB;color-interpolation-filters:linearRGB;solid-color:#000000;solid-opacity:1;fill:#ff0000;fill-opacity:0.91124262;fill-rule:evenodd;stroke:#ff0000;stroke-width:2.43057299;stroke-linecap:butt;stroke-linejoin:bevel;stroke-miterlimit:4;stroke-dasharray:none;stroke-dashoffset:0;stroke-opacity:1;color-rendering:auto;image-rendering:auto;shape-rendering:auto;text-rendering:auto;enable-background:accumulate"
       id="circle4350-5-7"
       cx="153.32857"
       cy="335.32571"
       r="5.9113579" />
    <circle
       style="color:#000000;clip-rule:nonzero;display:inline;overflow:visible;visibility:visible;opacity:0.77999998;isolation:auto;mix-blend-mode:normal;color-interpolation:sRGB;color-interpolation-filters:linearRGB;solid-color:#000000;solid-opacity:1;fill:#ff0000;fill-opacity:0.91124262;fill-rule:evenodd;stroke:#ff0000;stroke-width:2.43057299;stroke-linecap:butt;stroke-linejoin:bevel;stroke-miterlimit:4;stroke-dasharray:none;stroke-dashoffset:0;stroke-opacity:1;color-rendering:auto;image-rendering:auto;shape-rendering:auto;text-rendering:auto;enable-background:accumulate"
       id="circle4350-5-8-9"
       cx="208.94774"
       cy="475.12527"
       r="5.9113579" />
    <circle
       style="color:#000000;clip-rule:nonzero;display:inline;overflow:visible;visibility:visible;opacity:0.77999998;isolation:auto;mix-blend-mode:normal;color-interpolation:sRGB;color-interpolation-filters:linearRGB;solid-color:#000000;solid-opacity:1;fill:#ff0000;fill-opacity:0.91124262;fill-rule:evenodd;stroke:#ff0000;stroke-width:2.43057299;stroke-linecap:butt;stroke-linejoin:bevel;stroke-miterlimit:4;stroke-dasharray:none;stroke-dashoffset:0;stroke-opacity:1;color-rendering:auto;image-rendering:auto;shape-rendering:auto;text-rendering:auto;enable-background:accumulate"
       id="circle4350-5-8-5"
       cx="254.04439"
       cy="503.68646"
       r="5.9113579" />
    <path
       style="fill:#ff0000;fill-opacity:0.91124262;fill-rule:evenodd;stroke:#ff0000;stroke-width:5;stroke-linecap:butt;stroke-linejoin:miter;stroke-miterlimit:4;stroke-dasharray:none;stroke-opacity:1"
       d="m 537.37087,558.35317 15.76929,-27.92555"
       id="path3936"
       inkscape:path-effect="#path-effect3938"
       inkscape:original-d="m 537.37087,558.35317 c 5.25917,-11.50801 10.98469,-19.45257 15.76929,-27.92555"
       inkscape:connector-curvature="0" />
  </g>
</svg>
